<svg width="480" height="80" viewBox="0 0 480 80" fill="none" xmlns="http://www.w3.org/2000/svg">
<path d="M16.2246 56V10.304H16.2886L37.5366 40.512H36.9606L58.2086 10.304H58.2726V56H56.9926V13.44L57.1206 13.952L37.2806 41.92H37.1526L17.3126 13.952L17.5046 13.504V56H16.2246ZM70.5321 33.6C70.5321 30.4427 71.1294 27.4773 72.3241 24.704C73.5187 21.888 75.1614 19.4347 77.2521 17.344C79.3427 15.2107 81.7747 13.5467 84.5481 12.352C87.3214 11.1573 90.2867 10.56 93.4441 10.56C96.6014 10.56 99.5668 11.1573 102.34 12.352C105.113 13.5467 107.545 15.2107 109.636 17.344C111.769 19.4347 113.433 21.888 114.628 24.704C115.865 27.4773 116.484 30.4427 116.484 33.6C116.484 36.7573 115.865 39.7227 114.628 42.496C113.433 45.2693 111.769 47.7013 109.636 49.792C107.545 51.8827 105.113 53.5253 102.34 54.72C99.5668 55.9147 96.6014 56.512 93.4441 56.512C90.2867 56.512 87.3214 55.9573 84.5481 54.848C81.7747 53.696 79.3427 52.096 77.2521 50.048C75.1614 48 73.5187 45.5893 72.3241 42.816C71.1294 40 70.5321 36.928 70.5321 33.6ZM71.8121 33.664C71.8121 36.6507 72.3667 39.4667 73.4761 42.112C74.5854 44.7147 76.1214 47.0187 78.0841 49.024C80.0467 50.9867 82.3294 52.5227 84.9321 53.632C87.5347 54.7413 90.3081 55.296 93.2521 55.296C96.2814 55.296 99.1187 54.7413 101.764 53.632C104.409 52.5227 106.735 50.9867 108.74 49.024C110.745 47.0187 112.324 44.7147 113.476 42.112C114.628 39.4667 115.204 36.6293 115.204 33.6C115.204 30.6133 114.628 27.8187 113.476 25.216C112.324 22.5707 110.745 20.2453 108.74 18.24C106.777 16.2347 104.473 14.656 101.828 13.504C99.2254 12.352 96.4307 11.776 93.4441 11.776C90.3721 11.776 87.5134 12.3733 84.8681 13.568C82.2654 14.72 79.9827 16.32 78.0201 18.368C76.0574 20.416 74.5214 22.7627 73.4121 25.408C72.3454 28.0107 71.8121 30.7627 71.8121 33.664ZM138.003 11.072C139.283 11.072 140.67 11.2853 142.163 11.712C143.699 12.1387 145.128 12.8213 146.451 13.76C147.816 14.6987 148.926 15.936 149.779 17.472C150.632 18.9653 151.059 20.8213 151.059 23.04C151.059 24.6613 150.803 26.24 150.291 27.776C149.779 29.2693 148.968 30.6133 147.859 31.808C146.792 33.0027 145.384 33.9627 143.635 34.688C141.886 35.3707 139.731 35.712 137.171 35.712H130.067V56H128.787V11.072H138.003ZM136.979 34.496C139.539 34.496 141.63 34.1547 143.251 33.472C144.915 32.7893 146.216 31.8933 147.155 30.784C148.094 29.6747 148.755 28.4587 149.139 27.136C149.566 25.7707 149.779 24.4267 149.779 23.104C149.779 21.5253 149.459 20.0747 148.819 18.752C148.222 17.3867 147.39 16.2347 146.323 15.296C145.256 14.3147 144.019 13.568 142.611 13.056C141.203 12.544 139.688 12.288 138.067 12.288H130.067V34.496H136.979ZM142.867 34.56L155.731 56H154.259L141.395 34.56H142.867ZM168.287 11.072H195.103V12.288H169.567V32.704H192.607V33.92H169.567V54.784H195.999V56H168.287V11.072ZM202.198 29.684H208.318L213.97 46.316L213.142 45.956L218.074 33.68L220.486 40.844L212.854 57.224L202.198 29.684ZM215.482 29.684H220.666L227.182 45.776L226.246 45.632L231.106 29.684H236.722L226.498 57.152L215.482 29.684ZM241.31 29.504H246.53V56H241.31V29.504ZM251.568 29.504H269.424V34.544H262.98V56H257.76V34.544H251.568V29.504ZM296.746 29.504V56H291.526V45.236H279.682V56H274.462V29.504H279.682V40.196H291.526V29.504H296.746ZM316.143 30.728H316.863V55.316H331.335V56H316.143V30.728ZM337.412 30.728H352.496V31.412H338.132V42.896H351.092V43.58H338.132V55.316H353V56H337.412V30.728ZM371.931 32.528C371.259 32.24 370.383 31.952 369.303 31.664C368.223 31.352 367.119 31.196 365.991 31.196C364.143 31.196 362.655 31.676 361.527 32.636C360.423 33.572 359.871 34.736 359.871 36.128C359.871 37.184 360.171 38.06 360.771 38.756C361.395 39.428 362.187 40.004 363.147 40.484C364.131 40.94 365.187 41.384 366.315 41.816C367.179 42.128 368.031 42.476 368.871 42.86C369.711 43.244 370.479 43.712 371.175 44.264C371.871 44.792 372.423 45.464 372.831 46.28C373.239 47.072 373.443 48.044 373.443 49.196C373.443 50.66 373.107 51.92 372.435 52.976C371.763 54.032 370.851 54.848 369.699 55.424C368.547 56 367.251 56.288 365.811 56.288C364.443 56.288 363.231 56.12 362.175 55.784C361.119 55.424 360.243 55.04 359.547 54.632C358.851 54.224 358.347 53.924 358.035 53.732L358.395 53.084C358.899 53.444 359.535 53.828 360.303 54.236C361.071 54.62 361.911 54.956 362.823 55.244C363.759 55.508 364.707 55.64 365.667 55.64C366.843 55.64 367.971 55.412 369.051 54.956C370.131 54.476 371.007 53.768 371.679 52.832C372.375 51.872 372.723 50.672 372.723 49.232C372.723 47.816 372.387 46.688 371.715 45.848C371.043 44.984 370.179 44.3 369.123 43.796C368.091 43.268 366.999 42.788 365.847 42.356C365.007 42.068 364.191 41.756 363.399 41.42C362.607 41.06 361.887 40.652 361.239 40.196C360.615 39.74 360.111 39.188 359.727 38.54C359.343 37.892 359.151 37.124 359.151 36.236C359.151 35.108 359.451 34.124 360.051 33.284C360.651 32.444 361.455 31.784 362.463 31.304C363.495 30.824 364.647 30.584 365.919 30.584C366.831 30.584 367.887 30.716 369.087 30.98C370.311 31.244 371.355 31.58 372.219 31.988L371.931 32.528ZM391.759 32.528C391.087 32.24 390.211 31.952 389.131 31.664C388.051 31.352 386.947 31.196 385.819 31.196C383.971 31.196 382.483 31.676 381.355 32.636C380.251 33.572 379.699 34.736 379.699 36.128C379.699 37.184 379.999 38.06 380.599 38.756C381.223 39.428 382.015 40.004 382.975 40.484C383.959 40.94 385.015 41.384 386.143 41.816C387.007 42.128 387.859 42.476 388.699 42.86C389.539 43.244 390.307 43.712 391.003 44.264C391.699 44.792 392.251 45.464 392.659 46.28C393.067 47.072 393.271 48.044 393.271 49.196C393.271 50.66 392.935 51.92 392.263 52.976C391.591 54.032 390.679 54.848 389.527 55.424C388.375 56 387.079 56.288 385.639 56.288C384.271 56.288 383.059 56.12 382.003 55.784C380.947 55.424 380.071 55.04 379.375 54.632C378.679 54.224 378.175 53.924 377.863 53.732L378.223 53.084C378.727 53.444 379.363 53.828 380.131 54.236C380.899 54.62 381.739 54.956 382.651 55.244C383.587 55.508 384.535 55.64 385.495 55.64C386.671 55.64 387.799 55.412 388.879 54.956C389.959 54.476 390.835 53.768 391.507 52.832C392.203 51.872 392.551 50.672 392.551 49.232C392.551 47.816 392.215 46.688 391.543 45.848C390.871 44.984 390.007 44.3 388.951 43.796C387.919 43.268 386.827 42.788 385.675 42.356C384.835 42.068 384.019 41.756 383.227 41.42C382.435 41.06 381.715 40.652 381.067 40.196C380.443 39.74 379.939 39.188 379.555 38.54C379.171 37.892 378.979 37.124 378.979 36.236C378.979 35.108 379.279 34.124 379.879 33.284C380.479 32.444 381.283 31.784 382.291 31.304C383.323 30.824 384.475 30.584 385.747 30.584C386.659 30.584 387.715 30.716 388.915 30.98C390.139 31.244 391.183 31.58 392.047 31.988L391.759 32.528Z" fill="#1E1E1E"/>
<path d="M450.149 37.5C450.904 37.5 451.536 37.2604 452.046 36.7812C452.557 36.3021 452.812 35.7083 452.812 35C452.812 34.2917 452.557 33.6979 452.046 33.2188C451.536 32.7396 450.904 32.5 450.149 32.5C449.395 32.5 448.763 32.7396 448.252 33.2188C447.742 33.6979 447.487 34.2917 447.487 35C447.487 35.7083 447.742 36.3021 448.252 36.7812C448.763 37.2604 449.395 37.5 450.149 37.5ZM428.851 31.25H442.162V27.5H428.851V31.25ZM419.532 62.5C418.024 57.75 416.537 53.0104 415.073 48.2812C413.609 43.5521 412.877 38.7083 412.877 33.75C412.877 29.9167 414.297 26.6667 417.136 24C419.976 21.3333 423.437 20 427.519 20H440.831C442.118 18.4167 443.682 17.1875 445.524 16.3125C447.365 15.4375 449.351 15 451.481 15C452.59 15 453.533 15.3646 454.309 16.0938C455.086 16.8229 455.474 17.7083 455.474 18.75C455.474 19 455.441 19.25 455.374 19.5C455.308 19.75 455.23 19.9792 455.141 20.1875C454.964 20.6458 454.797 21.1146 454.642 21.5938C454.487 22.0729 454.365 22.5625 454.276 23.0625L460.333 28.75H466.123V46.1875L458.602 48.5L454.143 62.5H439.5V57.5H434.175V62.5H419.532ZM422.528 58.75H430.182V53.75H443.494V58.75H451.148L455.341 45.625L462.13 43.4375V32.5H458.669L450.149 24.5C450.194 23.4583 450.338 22.4479 450.582 21.4688C450.826 20.4896 451.081 19.5 451.347 18.5C449.661 18.9167 448.064 19.5312 446.555 20.3438C445.047 21.1562 443.893 22.2917 443.094 23.75H427.519C424.578 23.75 422.068 24.7262 419.989 26.6786C417.91 28.6309 416.87 30.9881 416.87 33.75C416.87 38.0483 417.514 42.2478 418.8 46.3487C420.087 50.4496 421.33 54.5833 422.528 58.75Z" fill="#FFCE4F"/>
</svg>
